<svg width="151" height="151" viewBox="0 0 151 151" fill="none" xmlns="http://www.w3.org/2000/svg">
<g clip-path="url(#clip0_9_2)">
<rect width="150.764" height="150.764" fill="#F4ADB3"/>
<g style="mix-blend-mode:screen">
<path d="M60.9355 1.56371C60.9355 -5.37498 66.5605 -11 73.4992 -11H181.422C188.36 -11 193.985 -5.37498 193.985 1.56371C193.985 8.50239 188.36 14.1274 181.422 14.1274H157.927C156.54 14.1274 155.415 15.2524 155.415 16.6402V17.6453C155.415 19.033 156.54 20.158 157.927 20.158H163.204C168.755 20.158 173.255 24.6581 173.255 30.209C173.255 35.7601 168.755 40.2599 163.204 40.2599H134.747C134.098 40.2599 133.474 40.518 133.015 40.9775C132.556 41.4369 132.297 42.0601 132.297 42.7099C132.297 43.3596 132.556 43.9828 133.015 44.4422C133.474 44.9017 134.098 45.1598 134.747 45.1598H176.522C181.032 45.1598 184.688 48.8161 184.688 53.3262C184.688 57.8363 181.032 61.4926 176.522 61.4926H57.1664C52.656 61.4926 49 57.8363 49 53.3262C49 48.8161 52.656 45.1598 57.1664 45.1598H121.304C121.954 45.1598 122.577 44.9017 123.037 44.4422C123.496 43.9828 123.754 43.3596 123.754 42.7099C123.754 42.0601 123.496 41.4369 123.037 40.9775C122.577 40.518 121.954 40.2599 121.304 40.2599H110.185C104.634 40.2599 100.134 35.7601 100.134 30.209C100.134 24.6581 104.634 20.158 110.185 20.158H144.107C145.495 20.158 146.62 19.033 146.62 17.6453V16.6402C146.62 15.2524 145.495 14.1274 144.107 14.1274H73.4992C66.5605 14.1274 60.9355 8.50239 60.9355 1.56371Z" fill="#43A363"/>
</g>
<g style="mix-blend-mode:screen">
<path d="M100.936 81.5637C100.936 74.625 106.561 69 113.499 69H221.422C228.36 69 233.985 74.625 233.985 81.5637C233.985 88.5024 228.36 94.1274 221.422 94.1274H197.927C196.54 94.1274 195.415 95.2524 195.415 96.6402V97.6453C195.415 99.033 196.54 100.158 197.927 100.158H203.204C208.755 100.158 213.255 104.658 213.255 110.209C213.255 115.76 208.755 120.26 203.204 120.26H174.747C174.098 120.26 173.474 120.518 173.015 120.977C172.556 121.437 172.297 122.06 172.297 122.71C172.297 123.36 172.556 123.983 173.015 124.442C173.474 124.902 174.098 125.16 174.747 125.16H216.522C221.032 125.16 224.688 128.816 224.688 133.326C224.688 137.836 221.032 141.493 216.522 141.493H97.1664C92.656 141.493 89 137.836 89 133.326C89 128.816 92.656 125.16 97.1664 125.16H161.304C161.954 125.16 162.577 124.902 163.037 124.442C163.496 123.983 163.754 123.36 163.754 122.71C163.754 122.06 163.496 121.437 163.037 120.977C162.577 120.518 161.954 120.26 161.304 120.26H150.185C144.634 120.26 140.134 115.76 140.134 110.209C140.134 104.658 144.634 100.158 150.185 100.158H184.107C185.495 100.158 186.62 99.033 186.62 97.6453V96.6402C186.62 95.2524 185.495 94.1274 184.107 94.1274H113.499C106.561 94.1274 100.936 88.5024 100.936 81.5637Z" fill="#43A363"/>
</g>
<g style="mix-blend-mode:screen">
<path d="M80.0497 84.9289C80.0497 91.8676 74.4247 97.4926 67.486 97.4926H-40.4363C-47.375 97.4926 -53 91.8676 -53 84.9289C-53 77.9902 -47.375 72.3652 -40.4363 72.3652H-16.9421C-15.5543 72.3652 -14.4294 71.2402 -14.4294 69.8524V68.8473C-14.4294 67.4596 -15.5543 66.3346 -16.9421 66.3346H-22.2189C-27.7698 66.3346 -32.2699 61.8345 -32.2699 56.2836C-32.2699 50.7325 -27.7698 46.2327 -22.2189 46.2327H6.23791C6.88767 46.2327 7.51083 45.9746 7.97027 45.5151C8.42972 45.0557 8.68784 44.4325 8.68784 43.7827C8.68784 43.133 8.42972 42.5098 7.97027 42.0504C7.51083 41.5909 6.88767 41.3328 6.23791 41.3328H-35.5364C-40.0465 41.3328 -43.7028 37.6765 -43.7028 33.1664C-43.7028 28.6563 -40.0465 25 -35.5364 25H83.8188C88.3292 25 91.9852 28.6563 91.9852 33.1664C91.9852 37.6765 88.3292 41.3328 83.8188 41.3328H19.6811C19.0313 41.3328 18.4082 41.5909 17.9487 42.0504C17.4893 42.5098 17.2312 43.133 17.2312 43.7827C17.2312 44.4325 17.4893 45.0557 17.9487 45.5151C18.4082 45.9746 19.0313 46.2327 19.6811 46.2327H30.8C36.3509 46.2327 40.8509 50.7325 40.8509 56.2836C40.8509 61.8345 36.3509 66.3346 30.8 66.3346H-3.12205C-4.50984 66.3346 -5.63479 67.4596 -5.63479 68.8473V69.8524C-5.63479 71.2402 -4.50984 72.3652 -3.12205 72.3652H67.486C74.4247 72.3652 80.0497 77.9902 80.0497 84.9289Z" fill="#43A363"/>
</g>
<g style="mix-blend-mode:screen">
<path d="M120.05 164.929C120.05 171.868 114.425 177.493 107.486 177.493H-0.436272C-7.37496 177.493 -13 171.868 -13 164.929C-13 157.99 -7.37496 152.365 -0.436272 152.365H23.0579C24.4457 152.365 25.5706 151.24 25.5706 149.852V148.847C25.5706 147.46 24.4457 146.335 23.0579 146.335H17.7811C12.2302 146.335 7.73014 141.835 7.73014 136.284C7.73014 130.732 12.2302 126.233 17.7811 126.233H46.2379C46.8877 126.233 47.5108 125.975 47.9703 125.515C48.4297 125.056 48.6878 124.433 48.6878 123.783C48.6878 123.133 48.4297 122.51 47.9703 122.05C47.5108 121.591 46.8877 121.333 46.2379 121.333H4.46358C-0.0465452 121.333 -3.70283 117.677 -3.70283 113.166C-3.70283 108.656 -0.0465452 105 4.46358 105H123.819C128.329 105 131.985 108.656 131.985 113.166C131.985 117.677 128.329 121.333 123.819 121.333H59.6811C59.0313 121.333 58.4082 121.591 57.9487 122.05C57.4893 122.51 57.2312 123.133 57.2312 123.783C57.2312 124.433 57.4893 125.056 57.9487 125.515C58.4082 125.975 59.0313 126.233 59.6811 126.233H70.8C76.3509 126.233 80.8509 130.732 80.8509 136.284C80.8509 141.835 76.3509 146.335 70.8 146.335H36.878C35.4902 146.335 34.3652 147.46 34.3652 148.847V149.852C34.3652 151.24 35.4902 152.365 36.878 152.365H107.486C114.425 152.365 120.05 157.99 120.05 164.929Z" fill="#43A363"/>
</g>
</g>
<defs>
<clipPath id="clip0_9_2">
<rect width="150.764" height="150.764" fill="white"/>
</clipPath>
</defs>
</svg>
